<?xml version="1.0" encoding="utf-8"?>
<!-- Generator: Adobe Illustrator 22.0.1, SVG Export Plug-In . SVG Version: 6.00 Build 0)  -->
<svg version="1.1" id="Layer_1" xmlns="http://www.w3.org/2000/svg" xmlns:xlink="http://www.w3.org/1999/xlink" x="0px" y="0px"
	 viewBox="0 0 28.4 23.2" style="enable-background:new 0 0 28.4 23.2;" xml:space="preserve">
<style type="text/css">
	.st0{fill:#FFFFFF;}
</style>
<g>
	<path class="st0" d="M0.7,3.1c0.1,0,0.2,0,0.2,0c2.8,0,5.6,0,8.4,0c0.8,0,1.6,0.2,2.4,0.6c1.3,0.7,2,1.9,2.1,3.3
		c0,0.4,0,0.9-0.1,1.3c-0.2,1-0.7,1.7-1.6,2.2c-0.1,0.1-0.2,0.1-0.3,0.2c0.1,0.1,0.2,0.1,0.3,0.2c1.3,0.6,2,1.7,2.2,3.1
		c0.2,1.7-0.3,3.2-1.5,4.3c-0.8,0.7-1.7,1.1-2.7,1.2c-0.7,0.1-1.4,0.1-2.2,0.1c-2.3,0-4.5,0-6.8,0c-0.1,0-0.3,0-0.4,0
		C0.7,14.2,0.7,8.6,0.7,3.1z M4,16.8c0.1,0,0.1,0,0.2,0c1.5,0,2.9,0,4.4,0c0.3,0,0.7-0.1,1-0.2c1-0.4,1.4-1.2,1.3-2.3
		c-0.1-1.1-0.6-1.6-1.6-1.9c-0.2,0-0.5-0.1-0.7-0.1c-1.4,0-2.8,0-4.2,0c-0.1,0-0.2,0-0.3,0C4,13.9,4,15.4,4,16.8z M4,5.9
		C4,6,4,6,4,6c0,1.1,0,2.3,0,3.4c0,0.2,0.1,0.2,0.3,0.2c0.4,0,0.8,0,1.2,0c1.1,0,2.2,0,3.3-0.1c1.3-0.1,1.9-0.8,1.8-2
		c0-0.7-0.4-1.2-1.1-1.4C9.1,6,8.7,6,8.3,5.9c-1.3,0-2.6,0-3.9,0C4.2,5.9,4.1,5.9,4,5.9z"/>
	<path class="st0" d="M27.6,16.2c-0.1,0.3-0.2,0.7-0.3,0.9c-0.6,1.1-1.5,2-2.7,2.5c-2.1,0.8-4.1,0.7-6.1-0.3
		c-1.6-0.8-2.5-2.1-2.8-3.9c-0.2-1.5-0.2-3,0.3-4.5c0.7-2.2,2.6-3.6,4.8-3.8c1-0.1,2-0.1,2.9,0.2c2.2,0.6,3.5,2.2,3.9,4.4
		c0.2,0.8,0.1,1.6,0.2,2.4c0,0.3-0.1,0.3-0.3,0.3c-0.8,0-1.5,0-2.3,0c-2,0-3.9,0-5.9,0c-0.6,0-0.5,0-0.5,0.5c0.2,1.4,1,2.3,2.3,2.5
		c1.2,0.2,2.5,0,3.1-1.2c0-0.1,0.2-0.2,0.3-0.2c1,0,2,0,3,0C27.4,16.2,27.5,16.2,27.6,16.2z M18.8,12.3c1.9,0,3.7,0,5.6,0
		c0.1-0.8-0.4-1.8-1.1-2.2c-1-0.6-2.1-0.7-3.2,0C19.2,10.6,18.9,11.4,18.8,12.3z"/>
	<path class="st0" d="M18,5.9c0-0.7,0-1.3,0-2c2.4,0,4.7,0,7.1,0c0,0.7,0,1.3,0,2C22.7,5.9,20.4,5.9,18,5.9z"/>
</g>
</svg>
