<?xml version="1.0" encoding="utf-8"?>
<!-- Generator: Adobe Illustrator 22.0.1, SVG Export Plug-In . SVG Version: 6.00 Build 0)  -->
<svg version="1.1" id="Layer_1" xmlns="http://www.w3.org/2000/svg" xmlns:xlink="http://www.w3.org/1999/xlink" x="0px" y="0px"
	 viewBox="0 0 28.4 23.2" style="enable-background:new 0 0 28.4 23.2;" xml:space="preserve">
<style type="text/css">
	.st0{fill:#FFFFFF;}
</style>
<g>
	<g>
		<path class="st0" d="M8.8,17.8c-0.2,0-0.4,0-0.5-0.1c-0.3,0-0.6-0.1-0.8-0.2c-0.3-0.1-0.6-0.2-0.9-0.3c-0.4-0.2-0.8-0.5-1.1-0.8
			c-0.3-0.3-0.6-0.5-0.8-0.9c-0.3-0.4-0.5-0.8-0.7-1.2c0-0.1-0.1-0.2-0.1-0.4c0-0.1,0-0.1,0.1-0.1c0,0,0.1,0,0.1,0
			c0.1,0,0.3,0,0.4,0c0.2,0,0.3,0,0.5,0c0.3,0,0.6,0,0.9-0.1c0.1,0,0.3-0.1,0.4-0.1c0-0.1-0.1-0.1-0.1-0.1c-0.4-0.1-0.7-0.2-1.1-0.4
			c-0.3-0.1-0.5-0.3-0.7-0.4c-0.4-0.3-0.7-0.6-1.1-1c-0.3-0.3-0.5-0.7-0.7-1.1C2.1,10.5,1.9,10,1.9,9.5c-0.1-0.3-0.1-0.7-0.1-1
			c0-0.1,0-0.1,0.1-0.1c0.3,0.2,0.6,0.3,0.9,0.4C3.2,8.9,3.6,9,4,9c0,0,0.1,0,0.1,0C4.2,9,4.1,8.9,4,8.9C3.6,8.5,3.1,8.1,2.8,7.6
			C2.4,7.1,2.2,6.6,2,6C1.8,5.3,1.8,4.6,1.8,4c0-0.3,0.1-0.5,0.1-0.8C2,2.9,2.1,2.7,2.2,2.4c0.1-0.2,0.1-0.4,0.2-0.5
			c0-0.1,0.1-0.1,0.1-0.2c0-0.1,0.1-0.1,0.1,0c0.1,0.1,0.2,0.2,0.3,0.4C3.3,2.5,3.6,2.8,4,3.2c0.2,0.2,0.4,0.4,0.6,0.5
			C5,4.1,5.4,4.4,5.8,4.7c0.3,0.2,0.6,0.4,0.9,0.6C7,5.4,7.3,5.6,7.6,5.7C8,5.9,8.4,6.1,8.8,6.3c0.3,0.1,0.7,0.3,1,0.4
			c0.3,0.1,0.7,0.2,1,0.3c0.2,0.1,0.5,0.1,0.8,0.2c0.1,0,0.3,0,0.4,0.1c0.1,0,0.2,0,0.3,0c0.4,0.1,0.7,0.1,1.1,0.1
			c0.2,0,0.3,0,0.5,0c0.1,0,0.1,0,0.1-0.1c-0.1-0.4-0.1-0.9-0.1-1.3c0-0.3,0-0.5,0.1-0.8C14,5,14,4.8,14,4.7
			c0.1-0.3,0.2-0.6,0.3-0.8c0.2-0.4,0.4-0.7,0.6-1c0.3-0.4,0.6-0.7,0.9-1c0.3-0.3,0.7-0.5,1.1-0.7c0.4-0.2,0.7-0.3,1.1-0.4
			c0.5-0.1,1-0.2,1.6-0.1c0.2,0,0.4,0,0.7,0.1c0.2,0,0.5,0.1,0.7,0.2C21.6,1,22,1.2,22.4,1.5c0.4,0.2,0.7,0.5,1,0.8c0,0,0.1,0,0.1,0
			c0.2,0,0.3-0.1,0.5-0.1c0.2-0.1,0.4-0.1,0.6-0.2C25,2,25.4,1.8,25.8,1.6c0.4-0.2,0.7-0.3,1.1-0.5c0,0,0.1,0,0.1,0c0,0,0,0.1,0,0.1
			c-0.1,0.4-0.3,0.8-0.5,1.2c-0.2,0.3-0.4,0.6-0.7,0.9c-0.3,0.3-0.6,0.6-1,0.9c0,0,0,0,0,0c0,0,0.1,0,0.1,0C25,4,25.2,4,25.4,4
			c0.2,0,0.4-0.1,0.6-0.1c0.2-0.1,0.4-0.1,0.6-0.2c0.4-0.1,0.7-0.2,1.1-0.4c0,0,0.1,0,0.1,0c0,0,0,0.1,0,0.1
			c-0.3,0.4-0.6,0.8-0.9,1.2c-0.4,0.4-0.8,0.8-1.2,1.1C25.4,5.8,25.2,6,25,6.1c0,0-0.1,0.1-0.1,0.1c0,0.3,0,0.5,0,0.8
			c0,0.5,0,0.9-0.1,1.4c0,0.3-0.1,0.6-0.1,0.9c0,0.1-0.1,0.3-0.1,0.4c0,0.2-0.1,0.4-0.1,0.5c-0.1,0.2-0.1,0.5-0.2,0.7
			c-0.1,0.3-0.2,0.5-0.2,0.8c0,0.2-0.1,0.3-0.2,0.5c-0.1,0.4-0.3,0.7-0.4,1.1c-0.2,0.4-0.4,0.8-0.6,1.2c-0.2,0.4-0.4,0.8-0.7,1.2
			c-0.3,0.5-0.7,1-1.1,1.5c-0.3,0.4-0.6,0.7-1,1.1c-0.6,0.6-1.3,1.2-2.1,1.7c-0.5,0.4-1.1,0.7-1.6,1c-0.4,0.2-0.9,0.4-1.3,0.6
			c-0.4,0.1-0.7,0.3-1.1,0.4c-0.3,0.1-0.5,0.2-0.8,0.2c-0.3,0.1-0.5,0.1-0.8,0.2c-0.2,0-0.5,0.1-0.8,0.1c-0.2,0-0.4,0.1-0.5,0.1
			c-0.2,0-0.4,0-0.6,0.1c-0.6,0-1.2,0.1-1.8,0.1c-0.5,0-0.9,0-1.4-0.1c-0.2,0-0.4,0-0.6-0.1c-0.2,0-0.5-0.1-0.7-0.1
			c-0.3-0.1-0.5-0.1-0.8-0.2c-0.1,0-0.3-0.1-0.4-0.1c-0.4-0.1-0.7-0.2-1-0.3c-0.3-0.1-0.7-0.3-1-0.4c-0.6-0.3-1.3-0.6-1.9-1
			c-0.1-0.1-0.2-0.1-0.3-0.2c0,0-0.1,0,0-0.1c0,0,0,0,0.1,0c0.5,0.1,1,0.1,1.5,0.1c0.3,0,0.7,0,1-0.1C3.5,20,3.8,20,4.1,20
			c0.3,0,0.5-0.1,0.8-0.2c0.3-0.1,0.5-0.1,0.7-0.2c0.3-0.1,0.6-0.2,1-0.4c0.3-0.1,0.7-0.3,1-0.5c0.3-0.2,0.6-0.4,0.9-0.6
			C8.5,18.1,8.7,18,8.8,17.8z"/>
	</g>
</g>
</svg>
